<?xml version="1.0" encoding="UTF-8"?>
<svg version="1.1" xmlns="http://www.w3.org/2000/svg" width="75" height="64">
<path d="M0 0 C1.99954746 -0.04254356 4.00041636 -0.04080783 6 0 C7 1 7 1 7.11352539 3.68383789 C7.10828857 4.85164795 7.10305176 6.01945801 7.09765625 7.22265625 C7.09443359 8.48271484 7.09121094 9.74277344 7.08789062 11.04101562 C7.07953403 12.38151109 7.07106907 13.72200588 7.0625 15.0625 C7.0574866 16.40689942 7.05292342 17.7513006 7.04882812 19.09570312 C7.03699488 22.39717941 7.02050971 25.69856803 7 29 C6.2258374 29.32178223 5.4516748 29.64356445 4.65405273 29.97509766 C-2.32377392 32.876808 -2.32377392 32.876808 -9.27734375 35.8359375 C-10.48519531 36.34382813 -11.69304688 36.85171875 -12.9375 37.375 C-13.55689453 37.64699219 -14.17628906 37.91898438 -14.81445312 38.19921875 C-18.7186317 39.81731614 -20.94906243 39.99902691 -25 39 C-25.05793591 34.56255461 -25.09357467 30.12520611 -25.125 25.6875 C-25.14175781 24.42486328 -25.15851562 23.16222656 -25.17578125 21.86132812 C-25.18222656 20.65283203 -25.18867187 19.44433594 -25.1953125 18.19921875 C-25.20578613 17.08377686 -25.21625977 15.96833496 -25.22705078 14.8190918 C-25 12 -25 12 -23 9 C-20.625 8.375 -20.625 8.375 -18 8 C-15.78882074 7.53096198 -14.02678158 7.01339079 -12 6 C-10 5 -10 5 -7.8125 4.5 C-7.214375 4.335 -6.61625 4.17 -6 4 C-5.67 3.34 -5.34 2.68 -5 2 C-2.4375 1.375 -2.4375 1.375 0 1 C0 0.67 0 0.34 0 0 Z " fill="#0CB2F9" transform="translate(64,20)"/>
<path d="M0 0 C1.66385742 0.65838867 1.66385742 0.65838867 3.36132812 1.33007812 C4.94010742 1.98073242 4.94010742 1.98073242 6.55078125 2.64453125 C7.51282471 3.03616455 8.47486816 3.42779785 9.46606445 3.83129883 C11.6875 5.1875 11.6875 5.1875 12.61010742 7.2097168 C12.6875 9.1875 12.6875 9.1875 11.0625 11.375 C8.45405021 13.36565905 6.90236476 13.78564191 3.6875 14.1875 C0.10496536 14.92298724 -3.12357002 16.29981551 -6.5 17.6875 C-11.90794985 19.80551196 -16.52994097 20.89347157 -22.3125 21.1875 C-22.6425 20.5275 -22.9725 19.8675 -23.3125 19.1875 C-25.52242469 18.47716706 -27.70813156 18.12309486 -30 17.75 C-30.763125 17.564375 -31.52625 17.37875 -32.3125 17.1875 C-32.6425 16.5275 -32.9725 15.8675 -33.3125 15.1875 C-35.47749856 14.49160761 -37.55525205 14.15715599 -39.8125 13.875 C-42.99900707 12.99871056 -44.35142883 11.8274035 -46.3125 9.1875 C-46.27612305 7.2277832 -46.27612305 7.2277832 -45.3125 5.1875 C-42.81567383 3.70776367 -42.81567383 3.70776367 -39.51953125 2.35546875 C-38.33166016 1.86755859 -37.14378906 1.37964844 -35.91992188 0.87695312 C-35.29657959 0.63082275 -34.6732373 0.38469238 -34.03100586 0.13110352 C-32.14032089 -0.61892228 -30.26483522 -1.40000983 -28.38867188 -2.18554688 C-16.92428726 -6.80718492 -11.12290452 -4.59781801 0 0 Z " fill="#FBB42B" transform="translate(54.3125,8.8125)"/>
<path d="M0 0 C1.26577881 0.50104248 1.26577881 0.50104248 2.55712891 1.01220703 C3.48009766 1.37185547 4.40306641 1.73150391 5.35400391 2.10205078 C6.32080078 2.48748047 7.28759766 2.87291016 8.28369141 3.27001953 C10.18655662 4.01940059 12.0901757 4.76687089 13.99462891 5.51220703 C14.8407373 5.84849121 15.6868457 6.18477539 16.55859375 6.53125 C18.85145835 7.42572797 18.85145835 7.42572797 21.07519531 7.91503906 C23.48172046 8.54502953 25.00509694 9.83135265 26.90869141 11.39501953 C25.42094559 15.5060129 23.23824769 16.58621106 19.38525391 18.44580078 C18.28181641 18.97882812 17.17837891 19.51185547 16.04150391 20.06103516 C14.88392578 20.604375 13.72634766 21.14771484 12.53369141 21.70751953 C11.38384766 22.27019531 10.23400391 22.83287109 9.04931641 23.41259766 C0.41756355 27.52223757 0.41756355 27.52223757 -4.09130859 26.39501953 C-4.09130859 17.81501953 -4.09130859 9.23501953 -4.09130859 0.39501953 C-2.09130859 -0.60498047 -2.09130859 -0.60498047 0 0 Z " fill="#FC4777" transform="translate(8.09130859375,20.60498046875)"/>
<path d="M0 0 C0.92280762 0.3556604 0.92280762 0.3556604 1.86425781 0.71850586 C4.65858397 1.79391561 7.45427099 2.86574281 10.25 3.9375 C11.21808594 4.31068359 12.18617187 4.68386719 13.18359375 5.06835938 C14.11816406 5.42607422 15.05273438 5.78378906 16.015625 6.15234375 C16.87446289 6.48226318 17.73330078 6.81218262 18.61816406 7.15209961 C20.94054805 8.02697888 20.94054805 8.02697888 23.17089844 8.51782227 C25.57330553 9.15113166 27.09868523 10.43820573 29 12 C27.92108159 15.12886338 26.95941417 16.02646902 24.125 17.875 C21 19 21 19 19.13671875 18.3359375 C16.46631001 16.6663218 14.10916672 14.76405945 11.6875 12.75 C10.24503906 11.55310547 10.24503906 11.55310547 8.7734375 10.33203125 C5.49612263 7.5763172 2.23579278 4.80435374 -1 2 C-0.67 1.34 -0.34 0.68 0 0 Z " fill="#C6234D" transform="translate(6,20)"/>
<path d="M0 0 C0.66 0 1.32 0 2 0 C2 9.24 2 18.48 2 28 C1.01 28 0.02 28 -1 28 C-1.02886338 23.52084672 -1.04675187 19.04171709 -1.0625 14.5625 C-1.07087891 13.28310547 -1.07925781 12.00371094 -1.08789062 10.68554688 C-1.09111328 9.47060547 -1.09433594 8.25566406 -1.09765625 7.00390625 C-1.10289307 5.87799072 -1.10812988 4.7520752 -1.11352539 3.59204102 C-1 1 -1 1 0 0 Z " fill="#09BAFD" transform="translate(40,31)"/>
<path d="M0 0 C0.66 0 1.32 0 2 0 C2 8.91 2 17.82 2 27 C1.67 27 1.34 27 1 27 C0.67 18.09 0.34 9.18 0 0 Z " fill="#0D9FF1" transform="translate(36,32)"/>
<path d="M0 0 C0.33 0 0.66 0 1 0 C1 9.24 1 18.48 1 28 C0.67 28 0.34 28 0 28 C0 18.76 0 9.52 0 0 Z " fill="#00F4FF" transform="translate(72,21)"/>
<path d="M0 0 C0.33 0 0.66 0 1 0 C1 8.58 1 17.16 1 26 C0.67 26 0.34 26 0 26 C0 17.42 0 8.84 0 0 Z " fill="#FF777C" transform="translate(2,21)"/>
<path d="M0 0 C1.98 0 3.96 0 6 0 C5.34 0.66 4.68 1.32 4 2 C1.875 1.625 1.875 1.625 0 1 C0 0.67 0 0.34 0 0 Z " fill="#DA874F" transform="translate(34,30)"/>
<path d="M0 0 C0.66 1.32 1.32 2.64 2 4 C1.34 4 0.68 4 0 4 C0 2.68 0 1.36 0 0 Z " fill="#CCEE66" transform="translate(68,15)"/>
<path d="M0 0 C4 1 4 1 4 1 Z " fill="#00BFFF" transform="translate(40,61)"/>
<path d="M0 0 C3 1 3 1 3 1 Z " fill="#00FFFF" transform="translate(46,59)"/>
<path d="M0 0 C3 1 3 1 3 1 Z " fill="#008DFF" transform="translate(54,56)"/>
<path d="M0 0 C3 1 3 1 3 1 Z " fill="#00B8FF" transform="translate(59,54)"/>
<path d="M0 0 C3 1 3 1 3 1 Z " fill="#00E9E9" transform="translate(64,52)"/>
<path d="M0 0 C3 1 3 1 3 1 Z " fill="#FF31B8" transform="translate(5,49)"/>
<path d="M0 0 C3 1 3 1 3 1 Z " fill="#FF8D1C" transform="translate(11,11)"/>
<path d="M0 0 C3 1 3 1 3 1 Z " fill="#FFB81C" transform="translate(56,9)"/>
<path d="M0 0 C3 1 3 1 3 1 Z " fill="#FFE21C" transform="translate(16,9)"/>
<path d="M0 0 C3 1 3 1 3 1 Z " fill="#FF8D1C" transform="translate(44,4)"/>
<path d="M0 0 C3 1 3 1 3 1 Z " fill="#FFB81C" transform="translate(28,4)"/>
<path d="M0 0 C3 1 3 1 3 1 Z " fill="#FFC61C" transform="translate(39,2)"/>
<path d="M0 0 C3 1 3 1 3 1 Z " fill="#E9CD15" transform="translate(33,2)"/>
<path d="M0 0 C2 1 2 1 2 1 Z " fill="#00BFFF" transform="translate(44,60)"/>
<path d="M0 0 C2 1 2 1 2 1 Z " fill="#00D4FF" transform="translate(49,58)"/>
<path d="M0 0 C2 1 2 1 2 1 Z " fill="#00DFFF" transform="translate(52,57)"/>
<path d="M0 0 C2 1 2 1 2 1 Z " fill="#009FFF" transform="translate(57,55)"/>
<path d="M0 0 C2 1 2 1 2 1 Z " fill="#00D4FF" transform="translate(62,53)"/>
<path d="M0 0 C2 1 2 1 2 1 Z " fill="#00AAFF" transform="translate(67,51)"/>
<path d="M0 0 C2 1 2 1 2 1 Z " fill="#FF2080" transform="translate(8,48)"/>
<path d="M0 0 C2 1 2 1 2 1 Z " fill="#FF6A95" transform="translate(10,47)"/>
<path d="M0 0 C2 1 2 1 2 1 Z " fill="#FF6A95" transform="translate(12,46)"/>
<path d="M0 0 C2 1 2 1 2 1 Z " fill="#FF6A6A" transform="translate(14,45)"/>
<path d="M0 0 C2 1 2 1 2 1 Z " fill="#FF6A6A" transform="translate(16,44)"/>
<path d="M0 0 C2 1 2 1 2 1 Z " fill="#FF2A6A" transform="translate(18,43)"/>
<path d="M0 0 C2 1 2 1 2 1 Z " fill="#FF2AD4" transform="translate(20,42)"/>
<path d="M0 0 C2 1 2 1 2 1 Z " fill="#FF2A55" transform="translate(23,41)"/>
<path d="M0 0 C2 1 2 1 2 1 Z " fill="#7F002A" transform="translate(25,40)"/>
<path d="M0 0 C2 1 2 1 2 1 Z " fill="#FF002A" transform="translate(27,39)"/>
<path d="M0 0 C2 1 2 1 2 1 Z " fill="#DF0020" transform="translate(29,38)"/>
<path d="M0 0 C2 1 2 1 2 1 Z " fill="#DF2020" transform="translate(31,37)"/>
<path d="M0 0 C2 1 2 1 2 1 Z " fill="#FF9555" transform="translate(24,26)"/>
<path d="M0 0 C2 1 2 1 2 1 Z " fill="#86C5CC" transform="translate(51,25)"/>
<path d="M0 0 C2 1 2 1 2 1 Z " fill="#FF804A" transform="translate(19,24)"/>
<path d="M0 0 C2 1 2 1 2 1 Z " fill="#EA804A" transform="translate(14,22)"/>
<path d="M0 0 C2 1 2 1 2 1 Z " fill="#EA9F4A" transform="translate(9,20)"/>
<path d="M0 0 C2 1 2 1 2 1 Z " fill="#6AB4DF" transform="translate(66,19)"/>
<path d="M0 0 C2 1 2 1 2 1 Z " fill="#DF4A4A" transform="translate(7,19)"/>
<path d="" fill="#FFFF00" transform="translate(0,0)"/>
<path d="M0 0 C2 1 2 1 2 1 Z " fill="#FFDF20" transform="translate(64,12)"/>
<path d="M0 0 C2 1 2 1 2 1 Z " fill="#FFDF20" transform="translate(9,12)"/>
<path d="M0 0 C2 1 2 1 2 1 Z " fill="#FFAA00" transform="translate(61,11)"/>
<path d="M0 0 C2 1 2 1 2 1 Z " fill="#FF9F20" transform="translate(59,10)"/>
<path d="M0 0 C2 1 2 1 2 1 Z " fill="#FF9F20" transform="translate(14,10)"/>
<path d="M0 0 C2 1 2 1 2 1 Z " fill="#FFD42A" transform="translate(54,8)"/>
<path d="M0 0 C2 1 2 1 2 1 Z " fill="#FFD42A" transform="translate(19,8)"/>
<path d="M0 0 C2 1 2 1 2 1 Z " fill="#FFDF20" transform="translate(52,7)"/>
<path d="M0 0 C2 1 2 1 2 1 Z " fill="#FFDF20" transform="translate(21,7)"/>
<path d="M0 0 C2 1 2 1 2 1 Z " fill="#FFAA2A" transform="translate(49,6)"/>
<path d="M0 0 C2 1 2 1 2 1 Z " fill="#FFAA00" transform="translate(24,6)"/>
<path d="M0 0 C2 1 2 1 2 1 Z " fill="#FFDF20" transform="translate(47,5)"/>
<path d="M0 0 C2 1 2 1 2 1 Z " fill="#FF9F20" transform="translate(26,5)"/>
<path d="M0 0 C2 1 2 1 2 1 Z " fill="#FFBF2A" transform="translate(42,3)"/>
<path d="M0 0 C2 1 2 1 2 1 Z " fill="#FFD42A" transform="translate(31,3)"/>
<path d="" fill="#00FFFF" transform="translate(0,0)"/>
<path d="" fill="#0080FF" transform="translate(0,0)"/>
<path d="" fill="#00FFFF" transform="translate(0,0)"/>
<path d="" fill="#AA0055" transform="translate(0,0)"/>
<path d="" fill="#FF0000" transform="translate(0,0)"/>
<path d="" fill="#AAAAAA" transform="translate(0,0)"/>
<path d="" fill="#D5D5D5" transform="translate(0,0)"/>
<path d="" fill="#00FFFF" transform="translate(0,0)"/>
<path d="" fill="#FF00FF" transform="translate(0,0)"/>
<path d="" fill="#0080FF" transform="translate(0,0)"/>
<path d="" fill="#FF8080" transform="translate(0,0)"/>
<path d="" fill="#FFFF00" transform="translate(0,0)"/>
<path d="" fill="#FFFF00" transform="translate(0,0)"/>
<path d="" fill="#FFFF00" transform="translate(0,0)"/>
<path d="" fill="#FFFF00" transform="translate(0,0)"/>
<path d="" fill="#FFFF00" transform="translate(0,0)"/>
<path d="" fill="#FF0000" transform="translate(0,0)"/>
</svg>
